{
  "accessors": [
    {
      "bufferView": 3,
      "componentType": 5126,
      "count": 24,
      "max": [
        1.0,
        1.0000001192092896,
        1.0
      ],
      "min": [
        -1.0,
        -0.9999999403953552,
        -1.0
      ],
      "type": "VEC3"
    },
    {
      "bufferView": 3,
      "byteOffset": 288,
      "componentType": 5126,
      "count": 24,
      "max": [
        1.0,
        1.0,
        1.0
      ],
      "min": [
        -1.0,
        -1.0,
        -1.0
      ],
      "type": "VEC3"
    },
    {
      "bufferView": 2,
      "componentType": 5126,
      "count": 24,
      "max": [
        0.75,
        0.4375
      ],
      "min": [
        0.0,
        0.06249995529651642
      ],
      "type": "VEC2"
    },
    {
      "bufferView": 1,
      "componentType": 5125,
      "count": 36,
      "type": "SCALAR"
    },
    {
      "bufferView": 3,
      "byteOffset": 576,
      "componentType": 5126,
      "count": 24,
      "max": [
        19.00000762939453,
        -22.800010681152344,
        19.00000762939453
      ],
      "min": [
        -19.00000762939453,
        -60.800025939941406,
        -19.00000762939453
      ],
      "type": "VEC3"
    },
    {
      "bufferView": 3,
      "byteOffset": 864,
      "componentType": 5126,
      "count": 24,
      "max": [
        1.0,
        1.0,
        1.0
      ],
      "min": [
        -1.0,
        -1.0,
        -1.0
      ],
      "type": "VEC3"
    },
    {
      "bufferView": 2,
      "byteOffset": 192,
      "componentType": 5126,
      "count": 24,
      "max": [
        0.6249998807907104,
        0.7499999403953552
      ],
      "min": [
        1.1920928955078125e-07,
        0.4375
      ],
      "type": "VEC2"
    },
    {
      "bufferView": 1,
      "byteOffset": 144,
      "componentType": 5125,
      "count": 36,
      "type": "SCALAR"
    },
    {
      "bufferView": 3,
      "byteOffset": 1152,
      "componentType": 5126,
      "count": 8,
      "max": [
        1.0,
        4.6666669845581055,
        1.0
      ],
      "min": [
        -1.0,
        2.6666672229766846,
        -1.0
      ],
      "type": "VEC3"
    },
    {
      "bufferView": 3,
      "byteOffset": 1248,
      "componentType": 5126,
      "count": 8,
      "max": [
        0.0,
        1.0,
        2.220446049250313e-16
      ],
      "min": [
        0.0,
        -1.0,
        -2.220446049250313e-16
      ],
      "type": "VEC3"
    },
    {
      "bufferView": 2,
      "byteOffset": 384,
      "componentType": 5126,
      "count": 8,
      "max": [
        1.000000238418579,
        1.0
      ],
      "min": [
        -2.086162567138672e-07,
        -4.76837158203125e-07
      ],
      "type": "VEC2"
    },
    {
      "bufferView": 1,
      "byteOffset": 288,
      "componentType": 5125,
      "count": 12,
      "type": "SCALAR"
    },
    {
      "bufferView": 3,
      "byteOffset": 1344,
      "componentType": 5126,
      "count": 12,
      "max": [
        1.0,
        4.6666669845581055,
        1.0
      ],
      "min": [
        -1.0,
        2.6666672229766846,
        -1.0
      ],
      "type": "VEC3"
    },
    {
      "bufferView": 3,
      "byteOffset": 1488,
      "componentType": 5126,
      "count": 12,
      "max": [
        0.0,
        2.220446049250313e-16,
        1.0
      ],
      "min": [
        -1.0,
        -2.220446049250313e-16,
        -1.0
      ],
      "type": "VEC3"
    },
    {
      "bufferView": 2,
      "byteOffset": 448,
      "componentType": 5126,
      "count": 12,
      "max": [
        1.0,
        1.0000004768371582
      ],
      "min": [
        0.0,
        -4.76837158203125e-07
      ],
      "type": "VEC2"
    },
    {
      "bufferView": 1,
      "byteOffset": 336,
      "componentType": 5125,
      "count": 18,
      "type": "SCALAR"
    },
    {
      "bufferView": 3,
      "byteOffset": 1632,
      "componentType": 5126,
      "count": 4,
      "max": [
        1.0,
        4.6666669845581055,
        1.0
      ],
      "min": [
        1.0,
        2.6666672229766846,
        -1.0
      ],
      "type": "VEC3"
    },
    {
      "bufferView": 3,
      "byteOffset": 1680,
      "componentType": 5126,
      "count": 4,
      "max": [
        1.0,
        0.0,
        0.0
      ],
      "min": [
        1.0,
        0.0,
        0.0
      ],
      "type": "VEC3"
    },
    {
      "bufferView": 2,
      "byteOffset": 544,
      "componentType": 5126,
      "count": 4,
      "max": [
        1.0,
        1.0
      ],
      "min": [
        0.0,
        0.0
      ],
      "type": "VEC2"
    },
    {
      "bufferView": 1,
      "byteOffset": 408,
      "componentType": 5125,
      "count": 6,
      "type": "SCALAR"
    },
    {
      "bufferView": 3,
      "byteOffset": 1728,
      "componentType": 5126,
      "count": 24,
      "max": [
        0.0,
        3.1666665077209473,
        2507.00048828125
      ],
      "min": [
        -218.00001525878906,
        1.1666665077209473,
        2289.00048828125
      ],
      "type": "VEC3"
    },
    {
      "bufferView": 3,
      "byteOffset": 2016,
      "componentType": 5126,
      "count": 24,
      "max": [
        1.0,
        1.0,
        1.0
      ],
      "min": [
        -1.0,
        -1.0,
        -1.0
      ],
      "type": "VEC3"
    },
    {
      "bufferView": 2,
      "byteOffset": 576,
      "componentType": 5126,
      "count": 24,
      "max": [
        0.9375,
        1.0
      ],
      "min": [
        0.5,
        0.9375
      ],
      "type": "VEC2"
    },
    {
      "bufferView": 1,
      "byteOffset": 432,
      "componentType": 5125,
      "count": 36,
      "type": "SCALAR"
    },
    {
      "bufferView": 3,
      "byteOffset": 2304,
      "componentType": 5126,
      "count": 24,
      "max": [
        0.0,
        3.1666665077209473,
        -2289.00048828125
      ],
      "min": [
        -218.00001525878906,
        1.1666665077209473,
        -2507.00048828125
      ],
      "type": "VEC3"
    },
    {
      "bufferView": 3,
      "byteOffset": 2592,
      "componentType": 5126,
      "count": 24,
      "max": [
        1.0,
        1.0,
        1.0
      ],
      "min": [
        -1.0,
        -1.0,
        -1.0
      ],
      "type": "VEC3"
    },
    {
      "bufferView": 2,
      "byteOffset": 768,
      "componentType": 5126,
      "count": 24,
      "max": [
        0.9375,
        1.0
      ],
      "min": [
        0.5,
        0.9375
      ],
      "type": "VEC2"
    },
    {
      "bufferView": 1,
      "byteOffset": 576,
      "componentType": 5125,
      "count": 36,
      "type": "SCALAR"
    },
    {
      "bufferView": 5,
      "componentType": 5126,
      "count": 11,
      "max": [
        120.00000762939453,
        0.0,
        1.6952425596628018e-07,
        0.0,
        1.695242701771349e-07,
        120.00000762939453,
        1.2000000476837158,
        0.0,
        6.943163377570727e-09,
        1.200000286102295,
        120.00000762939453,
        0.0,
        0.0,
        1.2000000476837158,
        2.5999999046325684,
        1.0
      ],
      "min": [
        1.0,
        -1.1443613168182765e-08,
        0.0,
        0.0,
        -1.0729748645132986e-08,
        2.1457677235048322e-07,
        -1.2000000476837158,
        0.0,
        -1.1443614056361184e-08,
        -1.200000286102295,
        2.1457672971791908e-07,
        0.0,
        -0.10000035166740417,
        -3.200000047683716,
        -2.5999999046325684,
        1.0
      ],
      "type": "MAT4"
    },
    {
      "bufferView": 0,
      "componentType": 5123,
      "count": 24,
      "type": "VEC4"
    },
    {
      "bufferView": 4,
      "componentType": 5126,
      "count": 24,
      "max": [
        1.0,
        0.0,
        0.0,
        0.0
      ],
      "min": [
        1.0,
        0.0,
        0.0,
        0.0
      ],
      "type": "VEC4"
    },
    {
      "bufferView": 0,
      "byteOffset": 192,
      "componentType": 5123,
      "count": 24,
      "type": "VEC4"
    },
    {
      "bufferView": 4,
      "byteOffset": 384,
      "componentType": 5126,
      "count": 24,
      "max": [
        1.0,
        0.0,
        0.0,
        0.0
      ],
      "min": [
        1.0,
        0.0,
        0.0,
        0.0
      ],
      "type": "VEC4"
    },
    {
      "bufferView": 0,
      "byteOffset": 384,
      "componentType": 5123,
      "count": 8,
      "type": "VEC4"
    },
    {
      "bufferView": 4,
      "byteOffset": 768,
      "componentType": 5126,
      "count": 8,
      "max": [
        1.0,
        0.0,
        0.0,
        0.0
      ],
      "min": [
        1.0,
        0.0,
        0.0,
        0.0
      ],
      "type": "VEC4"
    },
    {
      "bufferView": 0,
      "byteOffset": 448,
      "componentType": 5123,
      "count": 12,
      "type": "VEC4"
    },
    {
      "bufferView": 4,
      "byteOffset": 896,
      "componentType": 5126,
      "count": 12,
      "max": [
        1.0,
        0.0,
        0.0,
        0.0
      ],
      "min": [
        1.0,
        0.0,
        0.0,
        0.0
      ],
      "type": "VEC4"
    },
    {
      "bufferView": 0,
      "byteOffset": 544,
      "componentType": 5123,
      "count": 4,
      "type": "VEC4"
    },
    {
      "bufferView": 4,
      "byteOffset": 1088,
      "componentType": 5126,
      "count": 4,
      "max": [
        1.0,
        0.0,
        0.0,
        0.0
      ],
      "min": [
        1.0,
        0.0,
        0.0,
        0.0
      ],
      "type": "VEC4"
    },
    {
      "bufferView": 0,
      "byteOffset": 576,
      "componentType": 5123,
      "count": 24,
      "type": "VEC4"
    },
    {
      "bufferView": 4,
      "byteOffset": 1152,
      "componentType": 5126,
      "count": 24,
      "max": [
        1.0,
        0.0,
        0.0,
        0.0
      ],
      "min": [
        1.0,
        0.0,
        0.0,
        0.0
      ],
      "type": "VEC4"
    },
    {
      "bufferView": 0,
      "byteOffset": 768,
      "componentType": 5123,
      "count": 24,
      "type": "VEC4"
    },
    {
      "bufferView": 4,
      "byteOffset": 1536,
      "componentType": 5126,
      "count": 24,
      "max": [
        1.0,
        0.0,
        0.0,
        0.0
      ],
      "min": [
        1.0,
        0.0,
        0.0,
        0.0
      ],
      "type": "VEC4"
    }
  ],
  "asset": {
    "extras": {
      "author": "None (https://sketchfab.com/None_Yaroslav)",
      "license": "CC-BY-4.0 (http://creativecommons.org/licenses/by/4.0/)",
      "source": "https://sketchfab.com/3d-models/minecraft-snow-golem-with-pumpkin-7b3edec2829f4a428e3b15412a978522",
      "title": "Minecraft Snow Golem With Pumpkin"
    },
    "generator": "Sketchfab-12.66.0",
    "version": "2.0"
  },
  "bufferViews": [
    {
      "buffer": 0,
      "byteLength": 960,
      "byteStride": 8,
      "name": "shortBufferViews",
      "target": 34962
    },
    {
      "buffer": 0,
      "byteLength": 720,
      "byteOffset": 960,
      "name": "floatBufferViews",
      "target": 34963
    },
    {
      "buffer": 0,
      "byteLength": 960,
      "byteOffset": 1680,
      "byteStride": 8,
      "name": "floatBufferViews",
      "target": 34962
    },
    {
      "buffer": 0,
      "byteLength": 2880,
      "byteOffset": 2640,
      "byteStride": 12,
      "name": "floatBufferViews",
      "target": 34962
    },
    {
      "buffer": 0,
      "byteLength": 1920,
      "byteOffset": 5520,
      "byteStride": 16,
      "name": "floatBufferViews",
      "target": 34962
    },
    {
      "buffer": 0,
      "byteLength": 704,
      "byteOffset": 7440,
      "name": "floatBufferViews"
    }
  ],
  "buffers": [
    {
      "byteLength": 8144,
      "uri": "scene.bin"
    }
  ],
  "images": [
    {
      "uri": "textures/Material_baseColor.png"
    },
    {
      "uri": "textures/Pumpkin_top_baseColor.png"
    },
    {
      "uri": "textures/Pumpkin_side_baseColor.png"
    },
    {
      "uri": "textures/Pumpkin_front_baseColor.png"
    }
  ],
  "materials": [
    {
      "doubleSided": true,
      "name": "Material",
      "pbrMetallicRoughness": {
        "baseColorTexture": {
          "index": 0
        },
        "metallicFactor": 0.0
      }
    },
    {
      "doubleSided": true,
      "name": "Pumpkin_top",
      "pbrMetallicRoughness": {
        "baseColorTexture": {
          "index": 1
        },
        "metallicFactor": 0.0
      }
    },
    {
      "doubleSided": true,
      "name": "Pumpkin_side",
      "pbrMetallicRoughness": {
        "baseColorTexture": {
          "index": 2
        },
        "metallicFactor": 0.0
      }
    },
    {
      "doubleSided": true,
      "name": "Pumpkin_front",
      "pbrMetallicRoughness": {
        "baseColorTexture": {
          "index": 3
        },
        "metallicFactor": 0.0
      }
    }
  ],
  "meshes": [
    {
      "name": "BodyDown_Material_0",
      "primitives": [
        {
          "attributes": {
            "JOINTS_0": 29,
            "NORMAL": 1,
            "POSITION": 0,
            "TEXCOORD_0": 2,
            "WEIGHTS_0": 30
          },
          "indices": 3,
          "material": 0,
          "mode": 4
        }
      ]
    },
    {
      "name": "BodyUp_Material_0",
      "primitives": [
        {
          "attributes": {
            "JOINTS_0": 31,
            "NORMAL": 5,
            "POSITION": 4,
            "TEXCOORD_0": 6,
            "WEIGHTS_0": 32
          },
          "indices": 7,
          "material": 0,
          "mode": 4
        }
      ]
    },
    {
      "name": "Head_Pumpkin_top_0",
      "primitives": [
        {
          "attributes": {
            "JOINTS_0": 33,
            "NORMAL": 9,
            "POSITION": 8,
            "TEXCOORD_0": 10,
            "WEIGHTS_0": 34
          },
          "indices": 11,
          "material": 1,
          "mode": 4
        }
      ]
    },
    {
      "name": "Head_Pumpkin_side_0",
      "primitives": [
        {
          "attributes": {
            "JOINTS_0": 35,
            "NORMAL": 13,
            "POSITION": 12,
            "TEXCOORD_0": 14,
            "WEIGHTS_0": 36
          },
          "indices": 15,
          "material": 2,
          "mode": 4
        }
      ]
    },
    {
      "name": "Head_Pumpkin_front_0",
      "primitives": [
        {
          "attributes": {
            "JOINTS_0": 37,
            "NORMAL": 17,
            "POSITION": 16,
            "TEXCOORD_0": 18,
            "WEIGHTS_0": 38
          },
          "indices": 19,
          "material": 3,
          "mode": 4
        }
      ]
    },
    {
      "name": "LArm_Material_0",
      "primitives": [
        {
          "attributes": {
            "JOINTS_0": 39,
            "NORMAL": 21,
            "POSITION": 20,
            "TEXCOORD_0": 22,
            "WEIGHTS_0": 40
          },
          "indices": 23,
          "material": 0,
          "mode": 4
        }
      ]
    },
    {
      "name": "RArm_Material_0",
      "primitives": [
        {
          "attributes": {
            "JOINTS_0": 41,
            "NORMAL": 25,
            "POSITION": 24,
            "TEXCOORD_0": 26,
            "WEIGHTS_0": 42
          },
          "indices": 27,
          "material": 0,
          "mode": 4
        }
      ]
    }
  ],
  "nodes": [
    {
      "children": [
        1
      ],
      "matrix": [
        1.0,
        0.0,
        0.0,
        0.0,
        0.0,
        2.220446049250313e-16,
        -1.0,
        0.0,
        0.0,
        1.0,
        2.220446049250313e-16,
        0.0,
        0.0,
        0.0,
        0.0,
        1.0
      ],
      "name": "Sketchfab_model"
    },
    {
      "children": [
        2
      ],
      "matrix": [
        0.009999999776482582,
        0.0,
        0.0,
        0.0,
        0.0,
        0.0,
        0.009999999776482582,
        0.0,
        0.0,
        -0.009999999776482582,
        0.0,
        0.0,
        0.0,
        0.0,
        0.0,
        1.0
      ],
      "name": "SnowGolemWithPumpkin.fbx"
    },
    {
      "children": [
        3
      ],
      "name": "RootNode"
    },
    {
      "children": [
        4
      ],
      "matrix": [
        100.0,
        0.0,
        0.0,
        0.0,
        0.0,
        -1.629206793918314e-05,
        -99.99999999999868,
        0.0,
        0.0,
        99.99999999999868,
        -1.629206793918314e-05,
        0.0,
        0.0,
        -120.00000762939453,
        0.0,
        1.0
      ],
      "name": "Armature"
    },
    {
      "children": [
        5,
        7,
        9,
        11,
        12,
        13,
        15,
        17,
        6,
        8,
        10,
        14,
        16
      ],
      "name": "Object_4"
    },
    {
      "children": [
        18
      ],
      "name": "_rootJoint"
    },
    {
      "matrix": [
        120.00000476837158,
        0.0,
        0.0,
        0.0,
        0.0,
        7.347881086862668e-15,
        -120.00000476837158,
        0.0,
        0.0,
        120.00000476837158,
        7.347881086862668e-15,
        0.0,
        0.0,
        9.059906005859375e-06,
        0.0,
        1.0
      ],
      "name": "Object_6"
    },
    {
      "mesh": 0,
      "name": "Object_7",
      "skin": 0
    },
    {
      "matrix": [
        100.0,
        0.0,
        0.0,
        0.0,
        0.0,
        6.123233995736766e-15,
        -100.0,
        0.0,
        0.0,
        100.0,
        6.123233995736766e-15,
        0.0,
        0.0,
        220.00000190734863,
        0.0,
        1.0
      ],
      "name": "Object_8"
    },
    {
      "mesh": 1,
      "name": "Object_9",
      "skin": 0
    },
    {
      "matrix": [
        120.00000476837158,
        0.0,
        0.0,
        0.0,
        0.0,
        7.347881086862668e-15,
        -120.00000476837158,
        0.0,
        0.0,
        120.00000476837158,
        7.347881086862668e-15,
        0.0,
        0.0,
        440.00007820129395,
        0.0,
        1.0
      ],
      "name": "Object_10"
    },
    {
      "mesh": 2,
      "name": "Object_11",
      "skin": 0
    },
    {
      "mesh": 3,
      "name": "Object_12",
      "skin": 0
    },
    {
      "mesh": 4,
      "name": "Object_13",
      "skin": 0
    },
    {
      "matrix": [
        9.999999403953552,
        0.0,
        0.0,
        0.0,
        0.0,
        7.347881086862668e-15,
        -120.00000476837158,
        0.0,
        0.0,
        9.999999403953552,
        6.123233630763579e-16,
        0.0,
        9.999999403953552,
        260.0000114440918,
        -220.00000476837158,
        1.0
      ],
      "name": "Object_14"
    },
    {
      "mesh": 5,
      "name": "Object_15",
      "skin": 0
    },
    {
      "matrix": [
        9.999999403953552,
        0.0,
        0.0,
        0.0,
        0.0,
        7.347881086862668e-15,
        -120.00000476837158,
        0.0,
        0.0,
        9.999999403953552,
        6.123233630763579e-16,
        0.0,
        9.999999403953552,
        260.0000114440918,
        220.00000476837158,
        1.0
      ],
      "name": "Object_16"
    },
    {
      "mesh": 6,
      "name": "Object_17",
      "skin": 0
    },
    {
      "children": [
        19
      ],
      "name": "Root_00",
      "rotation": [
        0.7071068286895752,
        0.0,
        0.0,
        0.7071067094802856
      ]
    },
    {
      "children": [
        20,
        22,
        25
      ],
      "name": "Spine_01",
      "translation": [
        0.0,
        2.4000000953674316,
        0.0
      ]
    },
    {
      "children": [
        21
      ],
      "name": "Head_02",
      "translation": [
        0.0,
        2.0,
        0.0
      ]
    },
    {
      "name": "Head_end_07",
      "translation": [
        0.0,
        1.5999999046325684,
        0.0
      ]
    },
    {
      "children": [
        23
      ],
      "name": "LClavice_03",
      "rotation": [
        0.8694040775299072,
        0.03720716014504433,
        0.021066252142190933,
        -0.4922483563423157
      ],
      "scale": [
        0.9999999403953552,
        1.0,
        0.9999998807907104
      ],
      "translation": [
        0.0,
        2.0,
        0.0
      ]
    },
    {
      "children": [
        24
      ],
      "name": "LArm_04",
      "rotation": [
        -0.1920580267906189,
        -0.00821926910430193,
        0.041959550231695175,
        0.9804518222808838
      ],
      "scale": [
        0.9999999403953552,
        1.0,
        1.0
      ],
      "translation": [
        -1.4901161193847656e-08,
        1.1704699993133545,
        -7.338822172187065e-08
      ]
    },
    {
      "name": "LArm_end_08",
      "rotation": [
        -8.326672684688674e-17,
        8.271806125530277e-25,
        8.271806125530277e-25,
        1.0
      ],
      "translation": [
        1.3877787807814457e-17,
        2.4000000953674316,
        0.0
      ]
    },
    {
      "children": [
        26
      ],
      "name": "RClavice_05",
      "rotation": [
        0.8694040775299072,
        0.03720715641975403,
        -0.021066250279545784,
        0.4922483563423157
      ],
      "scale": [
        0.9999999403953552,
        1.0,
        0.9999998807907104
      ],
      "translation": [
        0.0,
        2.0,
        0.0
      ]
    },
    {
      "children": [
        27
      ],
      "name": "RArm_06",
      "rotation": [
        0.2504570782184601,
        0.010718590579926968,
        0.04139172285795212,
        0.9671831727027893
      ],
      "translation": [
        -2.2351741790771484e-08,
        1.1704699993133545,
        7.376074506737496e-08
      ]
    },
    {
      "name": "RArm_end_09",
      "rotation": [
        -5.551115123125783e-17,
        3.6734198463196485e-40,
        -6.617444900424222e-24,
        1.0
      ],
      "translation": [
        1.3877787807814457e-17,
        2.4000000953674316,
        0.0
      ]
    }
  ],
  "samplers": [
    {
      "magFilter": 9728,
      "minFilter": 9728,
      "wrapS": 10497,
      "wrapT": 10497
    }
  ],
  "scene": 0,
  "scenes": [
    {
      "name": "Sketchfab_Scene",
      "nodes": [
        0
      ]
    }
  ],
  "skins": [
    {
      "inverseBindMatrices": 28,
      "joints": [
        5,
        18,
        19,
        20,
        21,
        22,
        23,
        24,
        25,
        26,
        27
      ],
      "skeleton": 5
    }
  ],
  "textures": [
    {
      "sampler": 0,
      "source": 0
    },
    {
      "sampler": 0,
      "source": 1
    },
    {
      "sampler": 0,
      "source": 2
    },
    {
      "sampler": 0,
      "source": 3
    }
  ]
}
